<svg xmlns="http://www.w3.org/2000/svg" width="13.054" height="43" viewBox="0 0 13.054 43">
  <path id="noun_arrows_197541" d="M18,46.995h0c0,.067,0,.067.067.134,0,.067,0,.067.067.134h0c0,.067.067.067.067.134a.066.066,0,0,0,.067.067h0l.067.067.067.067,5.033,5.033a1.3,1.3,0,0,0,1.879,0,1.3,1.3,0,0,0,0-1.879l-2.751-2.684H56.319L53.568,50.82a1.3,1.3,0,0,0,0,1.879,1.3,1.3,0,0,0,1.879,0l5.033-5.033.2-.2a.234.234,0,0,0,.067-.134c0-.067.067-.067.067-.134s0-.067.067-.134c0-.067,0-.067.067-.134a.741.741,0,0,0,0-.537c0-.067,0-.067-.067-.134,0-.067,0-.067-.067-.134,0-.067-.067-.067-.067-.134s-.067-.067-.067-.134l-.2-.2L55.447,40.62A1.329,1.329,0,1,0,53.568,42.5l2.751,2.751H22.429L25.181,42.3a1.33,1.33,0,0,0-1.946-1.812l-4.9,5.234-.067.067-.067.067h0c0,.067-.067.067-.067.134l-.067.067h0c0,.067,0,.067-.067.134v.134h0v.4C18,46.928,18,46.928,18,46.995Z" transform="translate(-40.048 61) rotate(-90)"/>
</svg>
