<svg xmlns="http://www.w3.org/2000/svg" width="33.431" height="34.946" viewBox="0 0 33.431 34.946">
  <g id="noun_stars_1740794" transform="translate(-6.951 -5)">
    <path id="Path_17" data-name="Path 17" d="M73.814,69.658c-3.58-1.029-4.332-1.781-5.362-5.362a.388.388,0,0,0-.746,0c-1.029,3.581-1.781,4.332-5.362,5.362a.388.388,0,0,0,0,.746c3.58,1.029,4.332,1.781,5.362,5.362a.388.388,0,0,0,.746,0c1.029-3.581,1.781-4.332,5.362-5.362a.388.388,0,0,0,0-.746Z" transform="translate(-33.712 -36.1)"/>
    <path id="Path_18" data-name="Path 18" d="M47.637,38.793a.388.388,0,0,0-.281-.373c-3.111-.894-3.764-1.547-4.658-4.658a.388.388,0,0,0-.746,0c-.894,3.111-1.547,3.764-4.658,4.658a.388.388,0,0,0,0,.746c3.111.894,3.764,1.547,4.658,4.658a.388.388,0,0,0,.746,0c.894-3.111,1.547-3.764,4.658-4.658A.388.388,0,0,0,47.637,38.793Z" transform="translate(-18.389 -17.422)"/>
    <path id="Path_19" data-name="Path 19" d="M16.45,10.263a.388.388,0,0,0,0-.746C13.621,8.7,13.028,8.11,12.214,5.281a.388.388,0,0,0-.746,0C10.655,8.11,10.061,8.7,7.232,9.517a.388.388,0,0,0,0,.746c2.829.813,3.423,1.407,4.236,4.236a.388.388,0,0,0,.746,0C13.027,11.67,13.621,11.076,16.45,10.263Z"/>
    <path id="Path_20" data-name="Path 20" d="M77.937,26.854a.388.388,0,0,0,.746,0c.494-1.72.827-2.053,2.548-2.548a.388.388,0,0,0,0-.746c-1.72-.494-2.053-.828-2.548-2.548a.388.388,0,0,0-.746,0c-.494,1.72-.827,2.053-2.548,2.548a.388.388,0,0,0,0,.746C77.109,24.8,77.442,25.133,77.937,26.854Z" transform="translate(-41.692 -9.623)"/>
    <path id="Path_21" data-name="Path 21" d="M30.891,79c-2.1-.6-2.506-1.011-3.11-3.111a.388.388,0,0,0-.746,0c-.6,2.1-1.011,2.507-3.11,3.111a.388.388,0,0,0,0,.746c2.1.6,2.507,1.011,3.11,3.11a.388.388,0,0,0,.746,0c.6-2.1,1.01-2.506,3.11-3.11a.388.388,0,0,0,0-.746Z" transform="translate(-10.211 -43.193)"/>
  </g>
</svg>
