<svg height='100px' width='100px'  fill="#000000" xmlns:x="http://ns.adobe.com/Extensibility/1.0/" xmlns:i="http://ns.adobe.com/AdobeIllustrator/10.0/" xmlns:graph="http://ns.adobe.com/Graphs/1.0/" xmlns="http://www.w3.org/2000/svg" xmlns:xlink="http://www.w3.org/1999/xlink" version="1.1" x="0px" y="0px" viewBox="0 0 100 100" style="enable-background:new 0 0 100 100;" xml:space="preserve"><g><g i:extraneous="self"><path d="M50,2.5C23.8,2.5,2.5,23.8,2.5,50S23.8,97.5,50,97.5c26.2,0,47.5-21.3,47.5-47.5S76.2,2.5,50,2.5z M70.8,55.3H55.3v15.5    c0,2.9-2.4,5.3-5.3,5.3c-1.5,0-2.8-0.6-3.7-1.5c-1-1-1.5-2.3-1.5-3.7V55.3H29.2c-1.5,0-2.8-0.6-3.7-1.5c-1-1-1.5-2.3-1.5-3.7    c0-2.9,2.4-5.3,5.3-5.3h15.5V29.2c0-2.9,2.4-5.3,5.3-5.3c2.9,0,5.3,2.4,5.3,5.3v15.5h15.5c2.9,0,5.3,2.4,5.3,5.3    C76,52.9,73.7,55.3,70.8,55.3z"></path></g></g></svg>