<svg height='100px' width='100px'  fill="#000000" xmlns="http://www.w3.org/2000/svg" xmlns:xlink="http://www.w3.org/1999/xlink" version="1.1" x="0px" y="0px" viewBox="0 0 96 96" style="enable-background:new 0 0 96 96;" xml:space="preserve"><g><g><path d="M48,55.1c12.1,0,22-9.9,22-22s-9.9-22-22-22s-22,9.9-22,22S35.9,55.1,48,55.1z"></path><path d="M6.1,82.9c0,1.1,0.9,2,2,2h79.7c1.1,0,2-0.9,2-2c0-13.8-10.3-25.7-24-27.5c-0.5-0.1-1,0.1-1.5,0.4    C59.7,59.2,54,61.1,48,61.1s-11.7-1.9-16.4-5.4c-0.4-0.3-0.9-0.4-1.5-0.4C16.4,57.2,6.1,69.1,6.1,82.9z"></path></g></g></svg>